<svg viewBox="0 0 64 64" fill="none" xmlns="http://www.w3.org/2000/svg">
  <path d="M32 54C44.1503 54 54 44.1503 54 32C54 19.8497 44.1503 10 32 10C19.8497 10 10 19.8497 10 32C10 44.1503 19.8497 54 32 54Z" stroke="#222222" stroke-opacity="0.1" stroke-width="2" />
  <path d="M32 50C38.2438 50 43.4355 46.7029 46.5492 41.6583L32 32V50Z" fill="#FF6F3C" />
  <path d="M32 14C25.7562 14 20.5645 17.2971 17.4508 22.3417L32 32V14Z" fill="#FF6F3C" />
  <path d="M14 32C14 38.2438 17.2971 43.4355 22.3417 46.5492L32 32H14Z" fill="#007BFF" />
  <path d="M50 32C50 25.7562 46.7029 20.5645 41.6583 17.4508L32 32H50Z" fill="#007BFF" />
  <path d="M29.5 30.5L32 25L34.5 30.5L38 32L34.5 33.5L32 38L29.5 33.5L26 32L29.5 30.5Z" fill="white" />
</svg>
